<svg width="64" height="64" viewBox="0 0 64 64" fill="none" xmlns="http://www.w3.org/2000/svg">
<circle cx="32" cy="32" r="32" fill="#D9D9D9"/>
<path d="M32.0362 31.5476C38.1404 31.5476 43.0889 26.5992 43.0889 20.495C43.0889 14.3908 38.1404 9.44238 32.0362 9.44238C25.932 9.44238 20.9836 14.3908 20.9836 20.495C20.9836 26.5992 25.932 31.5476 32.0362 31.5476Z" stroke="#3E3E3E" stroke-width="1.5" stroke-miterlimit="10"/>
<path d="M10.6667 51.2953L11.4067 47.4111C12.2809 42.9253 14.7862 38.8712 18.4873 35.9533C22.1885 33.0354 26.8516 31.438 31.6667 31.4385C36.4875 31.4396 41.1552 33.0424 44.8572 35.9679C48.5591 38.8934 51.0608 42.9562 51.9267 47.449L52.6667 51.3332" stroke="#3E3E3E" stroke-width="1.5" stroke-miterlimit="10" stroke-linecap="round"/>
</svg>
