<svg width="38" height="38" viewBox="0 0 38 38" fill="none" xmlns="http://www.w3.org/2000/svg">
<path d="M19 36C28.3891 36 36 28.3891 36 19C36 9.6109 28.3891 2 19 2C9.6109 2 2 9.6109 2 19C2 28.3891 9.6109 36 19 36Z" stroke="#3F3F3F" stroke-width="3" stroke-linecap="round" stroke-linejoin="round"/>
<path d="M19 18.1501C20.1272 18.1501 21.2082 17.7024 22.0052 16.9054C22.8022 16.1083 23.25 15.0273 23.25 13.9001C23.25 12.773 22.8022 11.692 22.0052 10.8949C21.2082 10.0979 20.1272 9.65015 19 9.65015C17.8728 9.65015 16.7918 10.0979 15.9948 10.8949C15.1978 11.692 14.75 12.773 14.75 13.9001C14.75 15.0273 15.1978 16.1083 15.9948 16.9054C16.7918 17.7024 17.8728 18.1501 19 18.1501Z" fill="#3F3F3F" stroke="#3F3F3F" stroke-width="3" stroke-linejoin="round"/>
<path d="M7.11869 31.1822C7.41109 26.7528 11.0967 23.25 15.6 23.25H22.4C26.8973 23.25 30.5795 26.7435 30.8804 31.1643" fill="#3F3F3F"/>
<path d="M7.11869 31.1822C7.41109 26.7528 11.0967 23.25 15.6 23.25H22.4C26.8973 23.25 30.5795 26.7435 30.8804 31.1643" stroke="#3F3F3F" stroke-width="3" stroke-linecap="round" stroke-linejoin="round"/>
</svg>
