<svg width="34" height="32" viewBox="0 0 34 32" fill="none" xmlns="http://www.w3.org/2000/svg">
<path d="M3.4 3.55556H8.5L11.9 0H22.1L25.5 3.55556H30.6C31.5017 3.55556 32.3665 3.93016 33.0042 4.59695C33.6418 5.26375 34 6.16812 34 7.11111V28.4444C34 29.3874 33.6418 30.2918 33.0042 30.9586C32.3665 31.6254 31.5017 32 30.6 32H3.4C2.49826 32 1.63346 31.6254 0.995837 30.9586C0.358213 30.2918 0 29.3874 0 28.4444V7.11111C0 6.16812 0.358213 5.26375 0.995837 4.59695C1.63346 3.93016 2.49826 3.55556 3.4 3.55556ZM17 8.88889C14.7457 8.88889 12.5837 9.82539 10.9896 11.4924C9.39553 13.1594 8.5 15.4203 8.5 17.7778C8.5 20.1353 9.39553 22.3962 10.9896 24.0632C12.5837 25.7302 14.7457 26.6667 17 26.6667C19.2543 26.6667 21.4163 25.7302 23.0104 24.0632C24.6045 22.3962 25.5 20.1353 25.5 17.7778C25.5 15.4203 24.6045 13.1594 23.0104 11.4924C21.4163 9.82539 19.2543 8.88889 17 8.88889ZM17 12.4444C18.3526 12.4444 19.6498 13.0063 20.6062 14.0065C21.5627 15.0067 22.1 16.3633 22.1 17.7778C22.1 19.1923 21.5627 20.5488 20.6062 21.549C19.6498 22.5492 18.3526 23.1111 17 23.1111C15.6474 23.1111 14.3502 22.5492 13.3938 21.549C12.4373 20.5488 11.9 19.1923 11.9 17.7778C11.9 16.3633 12.4373 15.0067 13.3938 14.0065C14.3502 13.0063 15.6474 12.4444 17 12.4444Z" fill="#3F3F3F"/>
</svg>
