<svg width="34" height="34" viewBox="0 0 34 34" fill="none" xmlns="http://www.w3.org/2000/svg">
<path d="M17 15.1667C15.9833 15.1667 15.1667 15.9834 15.1667 17C15.1667 18.0167 15.9833 18.8334 17 18.8334C18.0167 18.8334 18.8333 18.0167 18.8333 17C18.8333 15.9834 18.0167 15.1667 17 15.1667ZM17 0.333374C7.8 0.333374 0.333328 7.80004 0.333328 17C0.333328 26.2 7.8 33.6667 17 33.6667C26.2 33.6667 33.6667 26.2 33.6667 17C33.6667 7.80004 26.2 0.333374 17 0.333374ZM20.65 20.65L7 27L13.35 13.35L27 7.00004L20.65 20.65Z" fill="#3F3F3F"/>
</svg>
