<svg width="23" height="21" viewBox="0 0 23 21" fill="none" xmlns="http://www.w3.org/2000/svg">
<path d="M15.3182 13.6667C15.3182 12.6669 12.3266 11.8571 8.63636 11.8571M15.3182 13.6667C15.3182 14.6664 12.3266 15.4762 8.63636 15.4762C4.94609 15.4762 1.95455 14.6664 1.95455 13.6667M15.3182 13.6667V18.1335C15.3182 19.164 12.3266 20 8.63636 20C4.94609 20 1.95455 19.1649 1.95455 18.1335V13.6667M15.3182 13.6667C18.9684 13.6667 22 12.7737 22 11.8571V2.80952M8.63636 11.8571C4.94609 11.8571 1.95455 12.6669 1.95455 13.6667M8.63636 11.8571C4.41918 11.8571 1 10.9641 1 10.0476V5.52381M8.63636 3.71429C4.41918 3.71429 1 4.52405 1 5.52381M1 5.52381C1 6.52357 4.41918 7.33333 8.63636 7.33333C8.63636 8.24986 11.7415 9.14286 15.3917 9.14286C19.0409 9.14286 22 8.24986 22 7.33333M22 2.80952C22 1.80976 19.0409 1 15.3917 1C11.7415 1 8.78336 1.80976 8.78336 2.80952M22 2.80952C22 3.80929 19.0409 4.61905 15.3917 4.61905C11.7425 4.61905 8.78336 3.80929 8.78336 2.80952M8.78336 2.80952V12.0073" stroke="#3F3F3F"/>
</svg>
