<svg width="29" height="29" viewBox="0 0 29 29" fill="none" xmlns="http://www.w3.org/2000/svg">
<path d="M0.00016087 10.8557C-0.00383544 11.1006 0.0667087 11.341 0.20244 11.5449C0.338171 11.7488 0.532677 11.9066 0.76017 11.9975L12.3609 16.6384L17.0019 28.24C17.0915 28.4644 17.2464 28.6568 17.4465 28.7922C17.6466 28.9277 17.8827 29.0001 18.1244 29H18.1437C18.3884 28.9961 18.6262 28.9181 18.8256 28.7761C19.0249 28.6341 19.1765 28.435 19.2602 28.205L28.9264 1.62344C29.0056 1.40719 29.0212 1.17284 28.9716 0.947976C28.922 0.723115 28.8092 0.51711 28.6464 0.354222C28.4837 0.191335 28.2777 0.0783485 28.0529 0.0285701C27.8281 -0.0212084 27.5937 -0.00570591 27.3774 0.0732514L0.79521 9.73926C0.565112 9.82315 0.365904 9.97492 0.223938 10.1745C0.0819727 10.3741 0.00393939 10.612 0.00016087 10.8569V10.8557Z" fill="#3E3E3E"/>
</svg>
