<svg width="34" height="32" viewBox="0 0 34 32" fill="none" xmlns="http://www.w3.org/2000/svg">
<g clip-path="url(#clip0_53_21)">
<path d="M7.14 10.24C3.21606 10.24 0 13.2576 0 16.9408C0 18.368 0.48416 19.6944 1.3039 20.7846L6.26892 28.8627C6.96422 29.7178 7.42662 29.5555 8.00496 28.8179L13.481 20.0467C13.5915 19.8579 13.6782 19.6576 13.754 19.4528C14.1015 18.6557 14.2802 17.8024 14.28 16.9408C14.28 13.2576 11.065 10.24 7.14 10.24ZM7.14 13.3798C9.25344 13.3798 10.9344 14.9578 10.9344 16.9411C10.9344 18.9245 9.25344 20.5018 7.14 20.5018C5.0269 20.5018 3.3456 18.9242 3.3456 16.9411C3.3456 14.9578 5.0269 13.3798 7.14 13.3798ZM29.835 0C27.5461 0 25.67 1.76032 25.67 3.90912C25.67 4.74144 25.9522 5.5152 26.4306 6.15104L29.327 10.8634C29.7327 11.3619 30.0023 11.2672 30.3396 10.8371L33.5339 5.72032C33.5985 5.61056 33.6491 5.49376 33.693 5.37408C33.8958 4.90925 34.0001 4.4116 34 3.90912C34 1.76 32.1246 0 29.835 0ZM29.835 1.83168C31.0678 1.83168 32.0484 2.752 32.0484 3.90912C32.0484 5.06592 31.0678 5.98592 29.835 5.98592C28.6025 5.98592 27.6216 5.06592 27.6216 3.90912C27.6216 2.752 28.6025 1.83168 29.835 1.83168Z" fill="#3F3F3F"/>
<path fill-rule="evenodd" clip-rule="evenodd" d="M29.9911 11.9718C29.2271 11.9878 28.4611 12.0182 27.6937 12.0717L27.812 13.8419C28.5491 13.7917 29.2875 13.7593 30.0264 13.745L29.9911 11.9718ZM25.9196 12.2342C24.7398 12.3722 23.5498 12.5686 22.3734 12.8845L22.8164 14.6C23.8853 14.3133 24.9931 14.128 26.1181 13.9965L25.9196 12.2342ZM20.6118 13.4784C20.2593 13.6248 19.9181 13.7941 19.5905 13.985L19.5891 13.9866L19.5871 13.9872C19.1196 14.2643 18.6269 14.616 18.2247 15.127C17.9333 15.4973 17.695 15.9654 17.6392 16.519L19.3715 16.6998C19.3844 16.5699 19.4551 16.3984 19.5823 16.2371H19.583V16.2365C19.788 15.9754 20.0954 15.7382 20.4609 15.5213L20.4622 15.5206C20.7228 15.3693 20.994 15.235 21.2741 15.1187L20.6118 13.4784ZM19.72 17.4896L18.597 18.8448C18.8632 19.0739 19.1423 19.2499 19.412 19.3971L19.4154 19.3987L19.4188 19.4006C20.3136 19.8797 21.2364 20.1501 22.0918 20.4067L22.5835 18.705C21.7284 18.4483 20.9222 18.2006 20.2314 17.8314C20.0335 17.7232 19.8601 17.6102 19.72 17.4896ZM24.2539 19.1837L23.7738 20.8883L24.0009 20.9549L24.2797 21.0387C25.2025 21.3213 26.0865 21.623 26.8767 22.0406L27.6784 20.4662C26.723 19.961 25.7312 19.6307 24.7755 19.3382L24.7727 19.3376L24.4865 19.2515L24.2539 19.1837ZM29.3087 21.6477L28.0769 22.9021C28.3679 23.1987 28.5858 23.5555 28.6919 23.9242L28.6926 23.9261L28.6933 23.929C28.8198 24.3594 28.8201 24.8656 28.7212 25.377L30.4293 25.72C30.5687 24.9981 30.5912 24.2054 30.362 23.423C30.1624 22.7312 29.7816 22.1302 29.3087 21.6477ZM28.1248 26.4458C27.9366 26.6329 27.7285 26.8014 27.504 26.9488H27.5033C26.8913 27.3539 26.1814 27.6592 25.4272 27.9216L25.9896 29.5997C26.8144 29.3126 27.6614 28.9606 28.4529 28.4365L28.4549 28.4349L28.456 28.4342C28.781 28.22 29.0817 27.9748 29.3532 27.7024L28.1248 26.4458ZM23.8272 28.3942C22.7348 28.6707 21.6182 28.8813 20.4881 29.0598L20.7546 30.8131C21.9178 30.6291 23.0857 30.4093 24.2464 30.1155L23.8272 28.3942ZM18.7877 29.3018C17.6501 29.448 16.5063 29.5674 15.3592 29.6691L15.5094 31.4362C16.6743 31.3331 17.8412 31.2118 19.0063 31.0618L18.7877 29.3018ZM13.635 29.8083C12.4855 29.8941 11.3332 29.9638 10.1799 30.0227L10.267 31.7942C11.4315 31.735 12.597 31.6643 13.7622 31.5773L13.635 29.8083ZM8.44696 30.1027C7.75574 30.1331 7.06282 30.1581 6.3682 30.1811L6.42532 31.9542C7.12428 31.9316 7.82311 31.9054 8.52176 31.8755L8.44696 30.1027Z" fill="#3F3F3F"/>
</g>
<defs>
<clipPath id="clip0_53_21">
<rect width="34" height="32" fill="white"/>
</clipPath>
</defs>
</svg>
