<svg width="42" height="42" viewBox="0 0 42 42" fill="none" xmlns="http://www.w3.org/2000/svg">
<path d="M38.7333 42L24.0333 27.3C22.8667 28.2333 21.525 28.9722 20.0083 29.5167C18.4917 30.0611 16.8778 30.3333 15.1667 30.3333C10.9278 30.3333 7.34067 28.8649 4.40533 25.928C1.47 22.9911 0.00155556 19.404 0 15.1667C0 10.9278 1.46844 7.34067 4.40533 4.40533C7.34222 1.47 10.9293 0.00155556 15.1667 0C19.4056 0 22.9927 1.46844 25.928 4.40533C28.8633 7.34222 30.3318 10.9293 30.3333 15.1667C30.3333 16.8778 30.0611 18.4917 29.5167 20.0083C28.9722 21.525 28.2333 22.8667 27.3 24.0333L42 38.7333L38.7333 42ZM15.1667 25.6667C18.0833 25.6667 20.5629 24.6454 22.6053 22.603C24.6478 20.5606 25.6682 18.0818 25.6667 15.1667C25.6667 12.25 24.6454 9.77044 22.603 7.728C20.5606 5.68555 18.0818 4.66511 15.1667 4.66667C12.25 4.66667 9.77044 5.68789 7.728 7.73033C5.68555 9.77278 4.66511 12.2516 4.66667 15.1667C4.66667 18.0833 5.68789 20.5629 7.73033 22.6053C9.77278 24.6478 12.2516 25.6682 15.1667 25.6667Z" fill="#3E3E3E"/>
</svg>
